<svg width="129" height="72" viewBox="0 0 129 72" fill="none" xmlns="http://www.w3.org/2000/svg">
<g clip-path="url(#clip0_52_41)" filter="url(#filter0_i_52_41)">
<path d="M34.6705 1.60262C35.7094 -0.447653 38.6396 -0.442072 39.6706 1.61214L72.9642 67.9439C73.8987 69.8059 72.5451 72 70.4617 72H3.5577C1.46968 72 0.116271 69.797 1.06003 67.9344L34.6705 1.60262Z" fill="#DBDADA"/>
<mask id="mask0_52_41" style="mask-type:alpha" maskUnits="userSpaceOnUse" x="0" y="0" width="74" height="72">
<path d="M34.6705 1.60262C35.7094 -0.447653 38.6396 -0.442072 39.6706 1.61214L72.9642 67.9439C73.8987 69.8059 72.5451 72 70.4617 72H3.5577C1.46968 72 0.116271 69.797 1.06003 67.9344L34.6705 1.60262Z" fill="#DBDADA"/>
</mask>
<g mask="url(#mask0_52_41)">
<g filter="url(#filter1_ddddi_52_41)">
<path d="M34.7928 1.43215C35.8917 -0.720388 39.0764 -0.340012 39.6374 2.01079L52.4203 55.5712C52.7442 56.9282 51.9394 58.2989 50.5966 58.6773L3.72593 71.8863C1.54278 72.5016 -0.326349 70.2217 0.704997 68.2016L34.7928 1.43215Z" fill="#F4F3F4"/>
</g>
</g>
</g>
<g clip-path="url(#clip1_52_41)" filter="url(#filter2_ii_52_41)">
<mask id="mask1_52_41" style="mask-type:alpha" maskUnits="userSpaceOnUse" x="57" y="0" width="107" height="87">
<rect x="57" width="107" height="87" rx="7" fill="#D9D9D9"/>
</mask>
<g mask="url(#mask1_52_41)">
<path d="M125.471 0C128.183 0 129.503 3.31271 127.534 5.17786L62.0632 67.2032C60.1512 69.0146 57 67.6592 57 65.0254V3C57 1.34315 58.3431 0 60 0H125.471Z" fill="#D4D3D3"/>
</g>
<mask id="mask2_52_41" style="mask-type:alpha" maskUnits="userSpaceOnUse" x="57" y="0" width="77" height="72">
<rect x="57" width="77" height="72" rx="7" fill="#D9D9D9"/>
</mask>
<g mask="url(#mask2_52_41)">
<mask id="mask3_52_41" style="mask-type:alpha" maskUnits="userSpaceOnUse" x="57" y="0" width="70" height="71">
<path d="M57 2.1C57 0.9402 57.9402 0 59.1 0H87H121.13C121.375 0 121.618 0.0427887 121.848 0.126434L125.268 1.37012C126.259 1.73048 126.829 2.76987 126.6 3.79924L126.139 5.87538C126.048 6.28255 125.839 6.65356 125.536 6.94109L94.9347 36.0625C94.7013 36.2845 94.5222 36.5572 94.4112 36.8595L82.7207 68.6776C82.1708 70.1742 80.2191 70.5362 79.1691 69.3362L57.5196 44.5938C57.1846 44.211 57 43.7196 57 43.211V2.1Z" fill="#F4F3F4"/>
</mask>
<g mask="url(#mask3_52_41)">
<g filter="url(#filter3_ddd_52_41)">
<path d="M57 2.09393C57 0.219637 59.269 -0.715771 60.5899 0.613976L127.944 68.4201C129.26 69.745 128.322 72 126.454 72H82.4529C81.8474 72 81.2713 71.7386 80.8725 71.2829L57.5196 44.5938C57.1846 44.211 57 43.7196 57 43.211V2.09393Z" fill="#F4F3F4"/>
</g>
<path fill-rule="evenodd" clip-rule="evenodd" d="M62.1585 2.2C61.9325 1.97323 61.8 1.69745 61.8 1.4C61.8 0.626801 62.6954 0 63.8 0C63.8675 0 63.9342 0.00234072 64 0.00691253V0H63.8H60V2.2H62.1585Z" fill="#F4F3F4"/>
</g>
</g>
<path d="M57 15.4352C57 8.65202 65.2116 5.26673 69.992 10.0792L118.63 59.044C123.393 63.839 119.997 72 113.238 72H64.6C60.4026 72 57 68.5974 57 64.4V15.4352Z" fill="#F4F3F4"/>
<path d="M57 15.4352C57 8.65202 65.2116 5.26673 69.992 10.0792L118.63 59.044C123.393 63.839 119.997 72 113.238 72H64.6C60.4026 72 57 68.5974 57 64.4V15.4352Z" fill="#F4F3F4"/>
</g>
<defs>
<filter id="filter0_i_52_41" x="0" y="0" width="79" height="76" filterUnits="userSpaceOnUse" color-interpolation-filters="sRGB">
<feFlood flood-opacity="0" result="BackgroundImageFix"/>
<feBlend mode="normal" in="SourceGraphic" in2="BackgroundImageFix" result="shape"/>
<feColorMatrix in="SourceAlpha" type="matrix" values="0 0 0 0 0 0 0 0 0 0 0 0 0 0 0 0 0 0 127 0" result="hardAlpha"/>
<feOffset dx="4" dy="4"/>
<feGaussianBlur stdDeviation="3.5"/>
<feComposite in2="hardAlpha" operator="arithmetic" k2="-1" k3="1"/>
<feColorMatrix type="matrix" values="0 0 0 0 0 0 0 0 0 0 0 0 0 0 0 0 0 0 0.25 0"/>
<feBlend mode="normal" in2="shape" result="effect1_innerShadow_52_41"/>
</filter>
<filter id="filter1_ddddi_52_41" x="-5.58667" y="-5.98634" width="78.0786" height="97.9749" filterUnits="userSpaceOnUse" color-interpolation-filters="sRGB">
<feFlood flood-opacity="0" result="BackgroundImageFix"/>
<feColorMatrix in="SourceAlpha" type="matrix" values="0 0 0 0 0 0 0 0 0 0 0 0 0 0 0 0 0 0 127 0" result="hardAlpha"/>
<feOffset dx="4" dy="4"/>
<feGaussianBlur stdDeviation="3"/>
<feComposite in2="hardAlpha" operator="out"/>
<feColorMatrix type="matrix" values="0 0 0 0 0 0 0 0 0 0 0 0 0 0 0 0 0 0 0.08 0"/>
<feBlend mode="normal" in2="BackgroundImageFix" result="effect1_dropShadow_52_41"/>
<feColorMatrix in="SourceAlpha" type="matrix" values="0 0 0 0 0 0 0 0 0 0 0 0 0 0 0 0 0 0 127 0" result="hardAlpha"/>
<feOffset dx="4" dy="4"/>
<feGaussianBlur stdDeviation="4"/>
<feComposite in2="hardAlpha" operator="out"/>
<feColorMatrix type="matrix" values="0 0 0 0 0 0 0 0 0 0 0 0 0 0 0 0 0 0 0.23 0"/>
<feBlend mode="normal" in2="effect1_dropShadow_52_41" result="effect2_dropShadow_52_41"/>
<feColorMatrix in="SourceAlpha" type="matrix" values="0 0 0 0 0 0 0 0 0 0 0 0 0 0 0 0 0 0 127 0" result="hardAlpha"/>
<feOffset dx="7" dy="7"/>
<feGaussianBlur stdDeviation="6.5"/>
<feComposite in2="hardAlpha" operator="out"/>
<feColorMatrix type="matrix" values="0 0 0 0 0 0 0 0 0 0 0 0 0 0 0 0 0 0 0.1 0"/>
<feBlend mode="normal" in2="effect2_dropShadow_52_41" result="effect3_dropShadow_52_41"/>
<feColorMatrix in="SourceAlpha" type="matrix" values="0 0 0 0 0 0 0 0 0 0 0 0 0 0 0 0 0 0 127 0" result="hardAlpha"/>
<feOffset dy="4"/>
<feGaussianBlur stdDeviation="2"/>
<feComposite in2="hardAlpha" operator="out"/>
<feColorMatrix type="matrix" values="0 0 0 0 0 0 0 0 0 0 0 0 0 0 0 0 0 0 0.25 0"/>
<feBlend mode="normal" in2="effect3_dropShadow_52_41" result="effect4_dropShadow_52_41"/>
<feBlend mode="normal" in="SourceGraphic" in2="effect4_dropShadow_52_41" result="shape"/>
<feColorMatrix in="SourceAlpha" type="matrix" values="0 0 0 0 0 0 0 0 0 0 0 0 0 0 0 0 0 0 127 0" result="hardAlpha"/>
<feOffset dx="-2" dy="-2"/>
<feGaussianBlur stdDeviation="3"/>
<feComposite in2="hardAlpha" operator="arithmetic" k2="-1" k3="1"/>
<feColorMatrix type="matrix" values="0 0 0 0 0 0 0 0 0 0 0 0 0 0 0 0 0 0 0.18 0"/>
<feBlend mode="normal" in2="shape" result="effect5_innerShadow_52_41"/>
</filter>
<filter id="filter2_ii_52_41" x="55" y="-2" width="77.6" height="74" filterUnits="userSpaceOnUse" color-interpolation-filters="sRGB">
<feFlood flood-opacity="0" result="BackgroundImageFix"/>
<feBlend mode="normal" in="SourceGraphic" in2="BackgroundImageFix" result="shape"/>
<feColorMatrix in="SourceAlpha" type="matrix" values="0 0 0 0 0 0 0 0 0 0 0 0 0 0 0 0 0 0 127 0" result="hardAlpha"/>
<feOffset dx="4"/>
<feGaussianBlur stdDeviation="3.5"/>
<feComposite in2="hardAlpha" operator="arithmetic" k2="-1" k3="1"/>
<feColorMatrix type="matrix" values="0 0 0 0 0 0 0 0 0 0 0 0 0 0 0 0 0 0 0.25 0"/>
<feBlend mode="normal" in2="shape" result="effect1_innerShadow_52_41"/>
<feColorMatrix in="SourceAlpha" type="matrix" values="0 0 0 0 0 0 0 0 0 0 0 0 0 0 0 0 0 0 127 0" result="hardAlpha"/>
<feOffset dx="-2" dy="-2"/>
<feGaussianBlur stdDeviation="2"/>
<feComposite in2="hardAlpha" operator="arithmetic" k2="-1" k3="1"/>
<feColorMatrix type="matrix" values="0 0 0 0 0 0 0 0 0 0 0 0 0 0 0 0 0 0 0.25 0"/>
<feBlend mode="normal" in2="effect1_innerShadow_52_41" result="effect2_innerShadow_52_41"/>
</filter>
<filter id="filter3_ddd_52_41" x="48" y="-20.0103" width="100.558" height="98.0103" filterUnits="userSpaceOnUse" color-interpolation-filters="sRGB">
<feFlood flood-opacity="0" result="BackgroundImageFix"/>
<feColorMatrix in="SourceAlpha" type="matrix" values="0 0 0 0 0 0 0 0 0 0 0 0 0 0 0 0 0 0 127 0" result="hardAlpha"/>
<feOffset dx="2" dy="-2"/>
<feGaussianBlur stdDeviation="3.5"/>
<feComposite in2="hardAlpha" operator="out"/>
<feColorMatrix type="matrix" values="0 0 0 0 0 0 0 0 0 0 0 0 0 0 0 0 0 0 0.13 0"/>
<feBlend mode="normal" in2="BackgroundImageFix" result="effect1_dropShadow_52_41"/>
<feColorMatrix in="SourceAlpha" type="matrix" values="0 0 0 0 0 0 0 0 0 0 0 0 0 0 0 0 0 0 127 0" result="hardAlpha"/>
<feOffset dx="7" dy="-7"/>
<feGaussianBlur stdDeviation="6.5"/>
<feComposite in2="hardAlpha" operator="out"/>
<feColorMatrix type="matrix" values="0 0 0 0 0 0 0 0 0 0 0 0 0 0 0 0 0 0 0.1 0"/>
<feBlend mode="normal" in2="effect1_dropShadow_52_41" result="effect2_dropShadow_52_41"/>
<feColorMatrix in="SourceAlpha" type="matrix" values="0 0 0 0 0 0 0 0 0 0 0 0 0 0 0 0 0 0 127 0" result="hardAlpha"/>
<feOffset dy="-5"/>
<feGaussianBlur stdDeviation="4.5"/>
<feComposite in2="hardAlpha" operator="out"/>
<feColorMatrix type="matrix" values="0 0 0 0 0 0 0 0 0 0 0 0 0 0 0 0 0 0 0.23 0"/>
<feBlend mode="normal" in2="effect2_dropShadow_52_41" result="effect3_dropShadow_52_41"/>
<feBlend mode="normal" in="SourceGraphic" in2="effect3_dropShadow_52_41" result="shape"/>
</filter>
<clipPath id="clip0_52_41">
<rect width="75" height="72" fill="white"/>
</clipPath>
<clipPath id="clip1_52_41">
<rect width="71.6" height="72" fill="white" transform="translate(57)"/>
</clipPath>
</defs>
</svg>
